<svg width="100" height="41" viewBox="0 0 100 41" fill="none" xmlns="http://www.w3.org/2000/svg">
<path d="M51.8864 14.7111H49.1134V11.0932H45.0258V14.7111H43.0107V17.8573H45.0258V25.7225C45.0065 28.6819 46.9736 30.1468 49.9386 30.019C50.9941 29.9797 51.7426 29.7634 52.1551 29.6258L51.5122 26.5091C51.3107 26.5484 50.8789 26.6467 50.4951 26.6467C49.6796 26.6467 49.1134 26.3322 49.1134 25.172V17.8573H51.8864V14.7111ZM58.7519 30.0976C60.9301 30.0976 62.3406 29.1242 63.0603 27.7183H63.1754V29.8125H67.0519V19.627C67.0519 16.0286 64.0774 14.5146 60.7957 14.5146C57.2646 14.5146 54.9426 16.2449 54.3764 18.9978L58.157 19.3123C58.4353 18.3095 59.3085 17.5722 60.7765 17.5722C62.1678 17.5722 62.9643 18.2898 62.9643 19.5287V19.5876C62.9643 20.5609 61.9568 20.6888 59.3948 20.9444C56.4778 21.2197 53.8583 22.2225 53.8583 25.5948C53.8583 28.5835 55.9404 30.0976 58.7519 30.0976ZM59.9226 27.2072C58.6656 27.2072 57.7635 26.6075 57.7635 25.4572C57.7635 24.2774 58.7135 23.6973 60.1529 23.4908C61.0453 23.3631 62.5037 23.1467 62.9931 22.8124V24.415C62.9931 25.9979 61.717 27.2072 59.9226 27.2072ZM75.6542 30.0583C78.0339 30.0583 79.2716 28.6524 79.8377 27.3939H80.0104V29.8125H84.0405V9.67737H79.9625V17.2477H79.8377C79.2908 16.0188 78.1105 14.5146 75.6446 14.5146C72.411 14.5146 69.6762 17.0904 69.6762 22.2816C69.6762 27.335 72.2958 30.0583 75.6542 30.0583ZM76.9496 26.7254C74.9441 26.7254 73.8503 24.8967 73.8503 22.2618C73.8503 19.6466 74.9249 17.8475 76.9496 17.8475C78.9358 17.8475 80.0489 19.568 80.0489 22.2618C80.0489 24.9558 78.9167 26.7254 76.9496 26.7254ZM99.6642 19.0174C99.2996 16.2351 97.1118 14.5146 93.3888 14.5146C89.6178 14.5146 87.1327 16.3039 87.1422 19.214C87.1327 21.4753 88.524 22.9402 91.4026 23.5301L93.9549 24.0512C95.2407 24.3166 95.826 24.7983 95.8453 25.5554C95.826 26.4501 94.876 27.0892 93.4464 27.0892C91.9878 27.0892 91.0188 26.4501 90.7692 25.2211L86.7488 25.4375C87.1327 28.328 89.5315 30.1075 93.4368 30.1075C97.2557 30.1075 99.9904 28.1117 100 25.1326C99.9904 22.9501 98.599 21.6424 95.7397 21.0427L93.0721 20.4922C91.7 20.1874 91.1915 19.7056 91.2011 18.9781C91.1915 18.0736 92.1893 17.4837 93.4559 17.4837C94.876 17.4837 95.7204 18.2801 95.922 19.2534L99.6642 19.0174Z" fill="white"/>
<path d="M2.75586 11.115L16.1873 24.267L17.9311 19.6359L8.70081 11.173L8.7783 10.9672L21.2979 10.6934L23.0417 6.06213L4.27141 7.08982L2.75586 11.115Z" fill="#04D361"/>
<path d="M40.4023 29.1735L26.9709 16.0215L25.2271 20.6528L34.4573 29.1156L34.3798 29.3215L21.8602 29.5951L20.1165 34.2264L38.8867 33.1988L40.4023 29.1735Z" fill="#04D361"/>
<path d="M29.0835 5.42508L24.6207 4.98499L13.6548 34.0098L18.1176 34.4499L29.0835 5.42508Z" fill="#04D361"/>
</svg>
