<svg width="209" height="188" viewBox="0 0 209 188" fill="none" xmlns="http://www.w3.org/2000/svg">
<path d="M200.575 74.5227C200.575 107.137 179.59 134.856 150.362 144.959C138.597 149.003 126.011 150.067 113.732 148.055C112.567 147.866 111.41 147.648 110.261 147.401C108.705 147.071 107.167 146.691 105.647 146.262C74.2682 137.446 51.269 108.666 51.269 74.5227C51.269 33.3647 84.6921 0 125.922 0C167.152 0 200.575 33.3647 200.575 74.5227Z" fill="#EDEDEF"/>
<path d="M79.1642 97.5237C79.0328 97.5939 78.9346 97.7133 78.8913 97.8557C78.8479 97.9981 78.8629 98.1518 78.933 98.2831L107.001 150.762C107.071 150.894 107.19 150.992 107.333 151.035C107.476 151.078 107.63 151.063 107.761 150.993L147.437 129.847C147.569 129.777 147.667 129.657 147.71 129.515C147.754 129.373 147.739 129.219 147.669 129.088L119.601 76.6084C119.531 76.4772 119.411 76.3792 119.269 76.3359C119.126 76.2927 118.972 76.3076 118.84 76.3776L79.1642 97.5237Z" fill="#3F3D56"/>
<path d="M82.8522 99.0573L108.537 147.08L143.749 128.314L118.065 80.29L82.8522 99.0573ZM80.6209 100.246L80.6259 100.244L80.6204 100.247L80.6209 100.246Z" fill="white"/>
<path d="M91.7306 104.337C91.1835 104.628 91.0671 105.48 91.4705 106.234C91.874 106.988 92.6472 107.365 93.1943 107.074L118.984 93.3286C119.531 93.0371 119.647 92.186 119.244 91.4316C118.84 90.6773 118.067 90.3004 117.52 90.5919L91.7306 104.337Z" fill="url(#paint0_linear)"/>
<path d="M94.9081 110.278C94.361 110.57 94.2446 111.421 94.648 112.175C95.0515 112.929 95.8247 113.306 96.3718 113.015L122.161 99.2698C122.708 98.9783 122.825 98.1271 122.421 97.3728C122.018 96.6184 121.245 96.2415 120.698 96.5331L94.9081 110.278Z" fill="url(#paint1_linear)"/>
<path d="M98.0856 116.219C97.5385 116.511 97.4221 117.362 97.8255 118.116C98.229 118.87 99.0022 119.247 99.5493 118.956L125.339 105.211C125.886 104.919 126.002 104.068 125.599 103.314C125.195 102.559 124.422 102.183 123.875 102.474L98.0856 116.219Z" fill="url(#paint2_linear)"/>
<path d="M101.263 122.16C100.716 122.452 100.599 123.303 101.003 124.057C101.406 124.811 102.18 125.188 102.727 124.897L128.516 111.152C129.063 110.86 129.18 110.009 128.776 109.255C128.373 108.501 127.6 108.124 127.052 108.415L101.263 122.16Z" fill="url(#paint3_linear)"/>
<path d="M104.44 128.101C103.893 128.393 103.777 129.244 104.18 129.998C104.584 130.752 105.357 131.129 105.904 130.838L131.694 117.093C132.241 116.801 132.357 115.95 131.954 115.196C131.55 114.442 130.777 114.065 130.23 114.356L104.44 128.101Z" fill="url(#paint4_linear)"/>
<path d="M109.448 74.8508L132.817 76.2752L139.361 56.7926L118.865 52.4695L109.448 74.8508Z" fill="#2F2E41"/>
<path d="M126.302 69.9242C131.463 69.9242 135.648 65.7471 135.648 60.5945C135.648 55.4418 131.463 51.2648 126.302 51.2648C121.14 51.2648 116.956 55.4418 116.956 60.5945C116.956 65.7471 121.14 69.9242 126.302 69.9242Z" fill="#FFB8B8"/>
<path d="M150.301 144.233L150.362 144.959C138.597 149.003 126.011 150.067 113.732 148.055L110.261 147.401L113.564 140.089L115.729 135.296L114.95 118.714L114.867 116.998L114.765 114.809L116.176 114.801L126.203 114.74L135.759 114.68L137.216 114.672C146.354 125.891 153.893 135.01 150.301 144.233Z" fill="#2F2E41"/>
<path d="M137.079 114.534L114.765 117.009L113.939 101.609C111.32 94.9424 113.049 88.9916 118.484 83.6515L119.588 79.2858C119.878 78.1399 120.478 77.0953 121.321 76.2656C122.164 75.436 123.219 74.853 124.371 74.5801C128.024 72.489 132.161 71.4923 136.803 71.6353C138.657 72.358 140.229 73.6567 141.287 75.3397C142.345 77.0226 142.832 79.0005 142.677 80.9813C141.717 93.0836 139.994 104.412 137.079 114.534Z" fill="url(#paint5_linear)"/>
<path d="M119.232 49.5715C119.232 49.5715 114.399 51.332 114.275 57.7323C114.268 58.8093 114.412 59.882 114.703 60.9193C115.016 62.0956 115.267 64.6478 113.16 68.0501C111.783 70.2584 110.539 72.5461 109.432 74.9012V74.9012L114.874 75.4253L115.773 66.4208C116.21 62.0552 117.287 57.7774 118.972 53.7252L119.007 53.6407C119.007 53.6407 121.504 57.9719 126.248 57.8384L124.506 56.1946C124.506 56.1946 130.448 58.4285 133.68 58.8771C134.048 58.9283 134.396 59.079 134.686 59.313C134.975 59.5469 135.195 59.8553 135.322 60.2047C135.448 60.5542 135.477 60.9316 135.405 61.2962C135.333 61.6609 135.163 61.999 134.912 62.2741C134.893 62.2948 134.874 62.3156 134.854 62.3364C132.878 64.4234 128.945 69.274 131.422 72.9286C133.899 76.5832 131.895 77.6553 131.895 77.6553L135.565 75.5206L137.231 74.4581L137.269 75.8113L146.052 74.5486C146.052 74.5486 148.415 74.1436 143.169 68.5354C143.169 68.5354 141.763 66.3398 142.296 64.3971C142.738 62.9196 142.821 61.3585 142.538 59.8428C141.22 53.5328 136.397 41.0496 119.232 49.5715Z" fill="#2F2E41"/>
<path d="M125.922 187.313C144.483 187.313 159.53 186.451 159.53 185.388C159.53 184.324 144.483 183.463 125.922 183.463C107.361 183.463 92.3143 184.324 92.3143 185.388C92.3143 186.451 107.361 187.313 125.922 187.313Z" fill="#EDEDEF"/>
<path d="M0.204615 88.6938C0.134058 88.7126 0.0738707 88.7586 0.0372623 88.8217C0.000653969 88.8848 -0.00938684 88.9598 0.00934772 89.0303L7.52703 117.197C7.5459 117.267 7.592 117.327 7.6552 117.364C7.7184 117.4 7.79354 117.41 7.86413 117.392L29.159 111.728C29.2296 111.709 29.2898 111.663 29.3264 111.6C29.363 111.537 29.373 111.462 29.3543 111.391L21.8366 83.2249C21.8178 83.1545 21.7717 83.0944 21.7085 83.0578C21.6453 83.0213 21.5701 83.0113 21.4995 83.03L0.204615 88.6938Z" fill="#F2F2F2"/>
<path d="M5.43724 93.3455C5.14363 93.4235 4.99283 93.8166 5.10089 94.2215C5.20894 94.6263 5.53567 94.8924 5.82928 94.8143L19.671 91.1328C19.9646 91.0547 20.1154 90.6617 20.0073 90.2568C19.8992 89.852 19.5725 89.5859 19.2789 89.664L5.43724 93.3455Z" fill="white"/>
<path d="M6.28831 96.5341C5.9947 96.6122 5.8439 97.0052 5.95196 97.4101C6.06002 97.8149 6.38674 98.081 6.68035 98.0029L20.522 94.3214C20.8156 94.2433 20.9664 93.8503 20.8584 93.4454C20.7503 93.0406 20.4236 92.7745 20.13 92.8526L6.28831 96.5341Z" fill="white"/>
<path d="M7.13939 99.7228C6.84578 99.8009 6.69498 100.194 6.80303 100.599C6.91109 101.004 7.23781 101.27 7.53142 101.192L21.3731 97.5102C21.6667 97.4321 21.8175 97.039 21.7095 96.6342C21.6014 96.2293 21.2747 95.9632 20.9811 96.0413L7.13939 99.7228Z" fill="white"/>
<path d="M7.99046 102.912C7.69685 102.99 7.54605 103.383 7.65411 103.788C7.76217 104.192 8.08889 104.458 8.3825 104.38L22.2242 100.699C22.5178 100.621 22.6686 100.228 22.5605 99.8229C22.4525 99.418 22.1258 99.1519 21.8321 99.23L7.99046 102.912Z" fill="white"/>
<path d="M8.84153 106.1C8.54792 106.178 8.39712 106.571 8.50518 106.976C8.61324 107.381 8.93996 107.647 9.23357 107.569L23.0753 103.887C23.3689 103.809 23.5197 103.416 23.4116 103.011C23.3036 102.607 22.9768 102.341 22.6832 102.419L8.84153 106.1Z" fill="white"/>
<path d="M9.69261 109.289C9.399 109.367 9.2482 109.76 9.35626 110.165C9.46431 110.57 9.79104 110.836 10.0847 110.758L23.9263 107.076C24.2199 106.998 24.3708 106.605 24.2627 106.2C24.1546 105.795 23.8279 105.529 23.5343 105.607L9.69261 109.289Z" fill="white"/>
<path d="M54.6252 187.936C54.6252 187.971 54.7487 188 54.9007 188H84.1008C84.2528 188 84.3763 187.971 84.3763 187.936V182.839C84.3763 182.804 84.2528 182.775 84.1008 182.775H54.9007C54.7487 182.775 54.6252 182.804 54.6252 182.839V187.936Z" fill="#F2F2F2"/>
<path d="M60.4752 187.044C60.4752 187.115 60.8169 187.172 61.2366 187.172C61.6563 187.172 61.998 187.115 61.998 187.044V183.731C61.998 183.661 61.6563 183.604 61.2366 183.604C60.8169 183.604 60.4752 183.661 60.4752 183.731V187.044Z" fill="white"/>
<path d="M63.7809 187.044C63.7809 187.115 64.1225 187.172 64.5423 187.172C64.962 187.172 65.3036 187.115 65.3036 187.044V183.731C65.3036 183.661 64.962 183.604 64.5423 183.604C64.1225 183.604 63.7809 183.661 63.7809 183.731V187.044Z" fill="white"/>
<path d="M67.0865 187.044C67.0865 187.115 67.4282 187.172 67.8479 187.172C68.2676 187.172 68.6093 187.115 68.6093 187.044V183.731C68.6093 183.661 68.2676 183.604 67.8479 183.604C67.4282 183.604 67.0865 183.661 67.0865 183.731V187.044Z" fill="white"/>
<path d="M70.3922 187.044C70.3922 187.115 70.7339 187.172 71.1536 187.172C71.5733 187.172 71.915 187.115 71.915 187.044V183.731C71.915 183.661 71.5733 183.604 71.1536 183.604C70.7339 183.604 70.3922 183.661 70.3922 183.731V187.044Z" fill="white"/>
<path d="M73.6979 187.044C73.6979 187.115 74.0395 187.172 74.4592 187.172C74.879 187.172 75.2206 187.115 75.2206 187.044V183.731C75.2206 183.661 74.879 183.604 74.4592 183.604C74.0395 183.604 73.6979 183.661 73.6979 183.731V187.044Z" fill="white"/>
<path d="M77.0035 187.044C77.0035 187.115 77.3452 187.172 77.7649 187.172C78.1846 187.172 78.5263 187.115 78.5263 187.044V183.731C78.5263 183.661 78.1846 183.604 77.7649 183.604C77.3452 183.604 77.0035 183.661 77.0035 183.731V187.044Z" fill="white"/>
<path d="M0.985721 68.3677C0.921327 68.4021 0.873234 68.4606 0.852 68.5304C0.830765 68.6001 0.838123 68.6755 0.872457 68.7398L14.625 94.4536C14.6594 94.5179 14.718 94.5659 14.7879 94.5871C14.8578 94.6083 14.9333 94.6009 14.9977 94.5667L34.4383 84.2055C34.5027 84.1711 34.5508 84.1126 34.572 84.0428C34.5932 83.9731 34.5859 83.8977 34.5515 83.8334L20.799 58.1196C20.7645 58.0553 20.7059 58.0073 20.6361 57.9861C20.5662 57.9649 20.4907 57.9723 20.4263 58.0066L0.985721 68.3677Z" fill="#EDEDEF"/>
<path d="M2.79277 69.119L15.3777 92.6493L32.6312 83.454L20.0463 59.9235L2.79277 69.119ZM1.69949 69.7016L1.70191 69.7004L1.69922 69.7018L1.69949 69.7016Z" fill="white"/>
<path d="M7.14299 71.7061C6.87496 71.8489 6.81789 72.2659 7.01557 72.6356C7.21325 73.0052 7.59213 73.1899 7.86016 73.047L20.4965 66.3122C20.7646 66.1694 20.8216 65.7524 20.6239 65.3827C20.4263 65.0131 20.0474 64.8284 19.7793 64.9713L7.14299 71.7061Z" fill="url(#paint6_linear)"/>
<path d="M8.69988 74.6171C8.43184 74.7599 8.37477 75.177 8.57245 75.5466C8.77013 75.9162 9.14902 76.1009 9.41705 75.958L22.0534 69.2232C22.3214 69.0804 22.3785 68.6634 22.1808 68.2938C21.9831 67.9241 21.6043 67.7395 21.3362 67.8823L8.69988 74.6171Z" fill="url(#paint7_linear)"/>
<path d="M10.2568 77.528C9.98873 77.6708 9.93166 78.0878 10.1293 78.4575C10.327 78.8271 10.7059 79.0118 10.9739 78.8689L23.6103 72.1341C23.8783 71.9913 23.9354 71.5743 23.7377 71.2046C23.5401 70.835 23.1612 70.6503 22.8931 70.7932L10.2568 77.528Z" fill="url(#paint8_linear)"/>
<path d="M11.8136 80.439C11.5456 80.5818 11.4885 80.9988 11.6862 81.3685C11.8839 81.7381 12.2628 81.9228 12.5308 81.7799L25.1672 75.0451C25.4352 74.9023 25.4923 74.4853 25.2946 74.1156C25.0969 73.746 24.718 73.5614 24.45 73.7042L11.8136 80.439Z" fill="url(#paint9_linear)"/>
<path d="M13.3705 83.35C13.1025 83.4928 13.0454 83.9099 13.2431 84.2795C13.4408 84.6491 13.8197 84.8338 14.0877 84.6909L26.7241 77.9562C26.9921 77.8133 27.0492 77.3963 26.8515 77.0267C26.6538 76.657 26.2749 76.4724 26.0069 76.6152L13.3705 83.35Z" fill="url(#paint10_linear)"/>
<path d="M14.9274 86.261C14.6594 86.4038 14.6023 86.8209 14.8 87.1905C14.9977 87.5601 15.3766 87.7448 15.6446 87.6019L28.281 80.8672C28.549 80.7243 28.6061 80.3073 28.4084 79.9377C28.2107 79.5681 27.8318 79.3834 27.5638 79.5262L14.9274 86.261Z" fill="url(#paint11_linear)"/>
<path d="M189.892 134.079C189.829 134.042 189.754 134.031 189.683 134.05C189.613 134.068 189.552 134.113 189.515 134.176L174.659 159.271C174.622 159.334 174.611 159.408 174.63 159.479C174.648 159.55 174.693 159.61 174.756 159.647L193.729 170.84C193.792 170.877 193.867 170.887 193.938 170.869C194.008 170.851 194.069 170.805 194.106 170.743L208.962 145.648C208.999 145.585 209.009 145.51 208.991 145.44C208.973 145.369 208.928 145.308 208.865 145.271L189.892 134.079Z" fill="#EDEDEF"/>
<path d="M190.188 136.011L176.594 158.975L193.432 168.908L207.027 145.944L190.188 136.011ZM189.122 135.381L189.124 135.383L189.121 135.381L189.122 135.381Z" fill="white"/>
<path d="M190.236 141.065C189.975 140.911 189.588 141.079 189.374 141.44C189.161 141.8 189.2 142.219 189.461 142.374L201.794 149.649C202.055 149.803 202.442 149.635 202.655 149.274C202.869 148.913 202.83 148.494 202.568 148.34L190.236 141.065Z" fill="url(#paint12_linear)"/>
<path d="M188.554 143.906C188.293 143.752 187.906 143.92 187.693 144.281C187.479 144.641 187.518 145.06 187.78 145.215L200.112 152.49C200.373 152.644 200.76 152.476 200.974 152.115C201.187 151.754 201.148 151.335 200.887 151.181L188.554 143.906Z" fill="url(#paint13_linear)"/>
<path d="M186.873 146.747C186.611 146.593 186.224 146.761 186.011 147.122C185.797 147.482 185.836 147.901 186.098 148.056L198.43 155.331C198.692 155.485 199.078 155.317 199.292 154.956C199.505 154.595 199.466 154.176 199.205 154.022L186.873 146.747Z" fill="url(#paint14_linear)"/>
<path d="M185.191 149.588C184.929 149.434 184.543 149.602 184.329 149.962C184.116 150.323 184.155 150.742 184.416 150.897L196.748 158.171C197.01 158.326 197.396 158.158 197.61 157.797C197.824 157.436 197.785 157.017 197.523 156.863L185.191 149.588Z" fill="url(#paint15_linear)"/>
<path d="M183.509 152.429C183.247 152.274 182.861 152.443 182.647 152.803C182.434 153.164 182.473 153.583 182.734 153.737L195.066 161.012C195.328 161.167 195.715 160.999 195.928 160.638C196.142 160.277 196.103 159.858 195.841 159.704L183.509 152.429Z" fill="url(#paint16_linear)"/>
<path d="M181.827 155.27C181.566 155.115 181.179 155.284 180.966 155.644C180.752 156.005 180.791 156.424 181.053 156.578L193.385 163.853C193.646 164.008 194.033 163.84 194.246 163.479C194.46 163.118 194.421 162.699 194.159 162.545L181.827 155.27Z" fill="url(#paint17_linear)"/>
<path d="M121.377 88.4098L121.09 90.1807L118.071 108.759L116.176 114.801L115.509 116.926L114.95 118.714L108.154 140.383L106.289 144.756C105.266 145.134 104.387 145.821 103.775 146.723C103.162 147.624 102.847 148.693 102.874 149.782C102.9 150.87 103.267 151.924 103.922 152.794C104.577 153.664 105.489 154.309 106.529 154.636C107.569 154.964 108.686 154.959 109.724 154.622C110.761 154.285 111.667 153.633 112.315 152.757C112.962 151.881 113.32 150.825 113.336 149.736C113.353 148.647 113.029 147.58 112.409 146.685L125.71 115.796L126.203 114.74L127.713 111.509L130.564 90.035L130.743 88.6848L121.377 88.4098Z" fill="#FFB8B8"/>
<path d="M132.396 90.6097C128.066 89.0567 123.913 88.8916 119.999 90.6097L121.277 79.5564C121.23 78.1761 121.727 76.8325 122.663 75.8146C123.598 74.7968 124.896 74.1858 126.277 74.1133C127.676 74.0398 129.047 74.5239 130.088 75.4593C131.129 76.3946 131.755 77.7044 131.828 79.1007L131.829 79.1188L132.396 90.6097Z" fill="url(#paint18_linear)"/>
<defs>
<linearGradient id="paint0_linear" x1="91.2302" y1="98.8328" x2="119.36" y2="96.9657" gradientUnits="userSpaceOnUse">
<stop stop-color="#039645"/>
<stop offset="1" stop-color="#04D361"/>
</linearGradient>
<linearGradient id="paint1_linear" x1="94.4077" y1="104.774" x2="122.538" y2="102.907" gradientUnits="userSpaceOnUse">
<stop stop-color="#039645"/>
<stop offset="1" stop-color="#04D361"/>
</linearGradient>
<linearGradient id="paint2_linear" x1="97.5852" y1="110.715" x2="125.715" y2="108.848" gradientUnits="userSpaceOnUse">
<stop stop-color="#039645"/>
<stop offset="1" stop-color="#04D361"/>
</linearGradient>
<linearGradient id="paint3_linear" x1="100.763" y1="116.656" x2="128.893" y2="114.789" gradientUnits="userSpaceOnUse">
<stop stop-color="#039645"/>
<stop offset="1" stop-color="#04D361"/>
</linearGradient>
<linearGradient id="paint4_linear" x1="103.94" y1="122.597" x2="132.07" y2="120.73" gradientUnits="userSpaceOnUse">
<stop stop-color="#039645"/>
<stop offset="1" stop-color="#04D361"/>
</linearGradient>
<linearGradient id="paint5_linear" x1="112.738" y1="94.3154" x2="142.685" y2="93.5406" gradientUnits="userSpaceOnUse">
<stop stop-color="#039645"/>
<stop offset="1" stop-color="#04D361"/>
</linearGradient>
<linearGradient id="paint6_linear" x1="6.89783" y1="69.0092" x2="20.681" y2="68.0943" gradientUnits="userSpaceOnUse">
<stop stop-color="#039645"/>
<stop offset="1" stop-color="#04D361"/>
</linearGradient>
<linearGradient id="paint7_linear" x1="8.45471" y1="71.9202" x2="22.2378" y2="71.0053" gradientUnits="userSpaceOnUse">
<stop stop-color="#039645"/>
<stop offset="1" stop-color="#04D361"/>
</linearGradient>
<linearGradient id="paint8_linear" x1="10.0116" y1="74.8311" x2="23.7948" y2="73.9162" gradientUnits="userSpaceOnUse">
<stop stop-color="#039645"/>
<stop offset="1" stop-color="#04D361"/>
</linearGradient>
<linearGradient id="paint9_linear" x1="11.5685" y1="77.7421" x2="25.3516" y2="76.8272" gradientUnits="userSpaceOnUse">
<stop stop-color="#039645"/>
<stop offset="1" stop-color="#04D361"/>
</linearGradient>
<linearGradient id="paint10_linear" x1="13.1254" y1="80.6531" x2="26.9085" y2="79.7382" gradientUnits="userSpaceOnUse">
<stop stop-color="#039645"/>
<stop offset="1" stop-color="#04D361"/>
</linearGradient>
<linearGradient id="paint11_linear" x1="14.6823" y1="83.5641" x2="28.4654" y2="82.6492" gradientUnits="userSpaceOnUse">
<stop stop-color="#039645"/>
<stop offset="1" stop-color="#04D361"/>
</linearGradient>
<linearGradient id="paint12_linear" x1="189.237" y1="145.357" x2="202.743" y2="144.532" gradientUnits="userSpaceOnUse">
<stop stop-color="#039645"/>
<stop offset="1" stop-color="#04D361"/>
</linearGradient>
<linearGradient id="paint13_linear" x1="187.555" y1="148.198" x2="201.061" y2="147.373" gradientUnits="userSpaceOnUse">
<stop stop-color="#039645"/>
<stop offset="1" stop-color="#04D361"/>
</linearGradient>
<linearGradient id="paint14_linear" x1="185.873" y1="151.039" x2="199.379" y2="150.214" gradientUnits="userSpaceOnUse">
<stop stop-color="#039645"/>
<stop offset="1" stop-color="#04D361"/>
</linearGradient>
<linearGradient id="paint15_linear" x1="184.191" y1="153.88" x2="197.697" y2="153.055" gradientUnits="userSpaceOnUse">
<stop stop-color="#039645"/>
<stop offset="1" stop-color="#04D361"/>
</linearGradient>
<linearGradient id="paint16_linear" x1="182.51" y1="156.721" x2="196.016" y2="155.896" gradientUnits="userSpaceOnUse">
<stop stop-color="#039645"/>
<stop offset="1" stop-color="#04D361"/>
</linearGradient>
<linearGradient id="paint17_linear" x1="180.828" y1="159.562" x2="194.334" y2="158.737" gradientUnits="userSpaceOnUse">
<stop stop-color="#039645"/>
<stop offset="1" stop-color="#04D361"/>
</linearGradient>
<linearGradient id="paint18_linear" x1="119.999" y1="82.3578" x2="132.385" y2="81.9933" gradientUnits="userSpaceOnUse">
<stop stop-color="#039645"/>
<stop offset="1" stop-color="#04D361"/>
</linearGradient>
</defs>
</svg>
